<?xml version="1.0" encoding="UTF-8"?>
<svg width="54px" height="54px" viewBox="0 0 54 54" version="1.1" xmlns="http://www.w3.org/2000/svg" xmlns:xlink="http://www.w3.org/1999/xlink">
    <g stroke="none" stroke-width="1" fill="none" fill-rule="evenodd" stroke-linecap="round">
        <path d="M27.7971784,27.1313078 L50.8077042,4.12078191 C51.0640986,3.86438754 51.0640986,3.44869014 50.8077042,3.19229577 C50.5513099,2.93590141 50.1356125,2.93590141 49.8792181,3.19229577 L26.8686922,26.2028216 L4.12078191,3.45491131 C3.86438754,3.19851695 3.44869014,3.19851695 3.19229577,3.45491131 C2.93590141,3.71130568 2.93590141,4.12700308 3.19229577,4.38339745 L25.9402061,27.1313078 L3.45491131,49.6166026 C3.19851695,49.8729969 3.19851695,50.2886943 3.45491131,50.5450887 C3.71130568,50.8014831 4.12700308,50.8014831 4.38339745,50.5450887 L26.8686922,28.0597939 L49.6166026,50.8077042 C49.8729969,51.0640986 50.2886943,51.0640986 50.5450887,50.8077042 C50.8014831,50.5513099 50.8014831,50.1356125 50.5450887,49.8792181 L27.7971784,27.1313078 Z" id="Combined-Shape" stroke="#BF2C2C" stroke-width="5"></path>
    </g>
</svg>